<?xml version="1.0" encoding="UTF-8" standalone="no"?>
<svg
   xmlns:dc="http://purl.org/dc/elements/1.1/"
   xmlns:cc="http://creativecommons.org/ns#"
   xmlns:rdf="http://www.w3.org/1999/02/22-rdf-syntax-ns#"
   xmlns:svg="http://www.w3.org/2000/svg"
   xmlns="http://www.w3.org/2000/svg"
   viewBox="0 0 280.12 84.106667"
   height="84.106667"
   width="280.12"
   xml:space="preserve"
   id="svg2"
   version="1.1"><metadata
     id="metadata8"><rdf:RDF><cc:Work
         rdf:about=""><dc:format>image/svg+xml</dc:format><dc:type
           rdf:resource="http://purl.org/dc/dcmitype/StillImage" /></cc:Work></rdf:RDF></metadata><defs
     id="defs6" /><g
     transform="matrix(1.3333333,0,0,-1.3333333,0,84.106667)"
     id="g10"><g
       transform="scale(0.1)"
       id="g12"><path
         id="path14"
         style="fill:#214395;fill-opacity:1;fill-rule:nonzero;stroke:none"
         d="m 315.422,630.805 c -17.883,0 -34.617,-7.051 -46.942,-19.676 L 19.0313,361.703 C 6.75781,349.367 0,332.926 0,315.449 -0.0351563,297.871 6.79688,281.34 19.2422,268.887 31.6641,256.465 48.1875,249.629 65.7617,249.629 H 230.219 V 413.645 L 381.156,263.391 V 565.02 c 0,36.281 -29.496,65.785 -65.734,65.785" /><path
         id="path16"
         style="fill:#176fc1;fill-opacity:1;fill-rule:nonzero;stroke:none"
         d="M 565.023,381.176 H 400.543 L 400.566,216.68 249.629,366.965 V 65.7813 C 249.629,29.5039 279.141,0 315.422,0 c 17.426,0 33.824,6.75781 46.25,19.0625 L 610.914,268.313 c 12.813,12.578 19.871,29.304 19.871,47.101 0,36.266 -29.496,65.762 -65.762,65.762" /><path
         id="path18"
         style="fill:#176fc1;fill-opacity:1;fill-rule:nonzero;stroke:none"
         d="m 738.848,142.383 c -2.403,1.601 -4.004,4.531 -4.004,8.008 0,5.871 4.535,10.41 10.14,10.41 2.668,0 5.071,-1.074 6.403,-2.403 17.617,-14.941 35.23,-22.148 58.98,-22.148 25.086,0 41.637,13.34 41.637,31.758 v 0.527 c 0,17.344 -9.344,27.227 -48.574,35.5 -42.965,9.344 -62.715,23.211 -62.715,53.906 v 0.536 c 0,29.355 25.887,50.972 61.379,50.972 24.551,0 42.433,-6.136 59.511,-18.414 2.141,-1.601 4.543,-4.531 4.543,-8.535 0,-5.605 -4.543,-10.145 -10.14,-10.145 -2.403,0 -4.274,0.536 -6.141,1.864 -15.746,11.484 -30.961,16.281 -48.304,16.281 -24.29,0 -39.766,-13.34 -39.766,-30.156 v -0.539 c 0,-17.606 9.609,-27.481 50.707,-36.289 41.633,-9.082 60.848,-24.286 60.848,-52.84 v -0.539 c 0,-32.02 -26.688,-52.84 -63.786,-52.84 -27.218,0 -49.902,8.543 -70.718,25.086" /><path
         id="path20"
         style="fill:#176fc1;fill-opacity:1;fill-rule:nonzero;stroke:none"
         d="m 1048.42,188.281 v 0.539 c 0,29.618 -22.15,53.914 -51.24,53.914 -29.891,0 -50.442,-24.296 -50.442,-53.379 v -0.535 c 0,-29.621 21.883,-53.644 50.977,-53.644 29.885,0 50.705,24.023 50.705,53.105 z m -122.768,0 v 0.539 c 0,38.965 30.426,72.059 72.063,72.059 41.365,0 71.785,-32.559 71.785,-71.524 v -0.535 c 0,-38.957 -30.69,-72.062 -72.32,-72.062 -41.364,0 -71.528,32.558 -71.528,71.523" /><path
         id="path22"
         style="fill:#176fc1;fill-opacity:1;fill-rule:nonzero;stroke:none"
         d="m 1129.81,305.715 c 0,5.605 4.54,10.402 10.14,10.402 5.87,0 10.41,-4.797 10.41,-10.402 V 129.043 c 0,-5.879 -4.28,-10.41 -10.14,-10.41 -5.87,0 -10.41,4.531 -10.41,10.41 v 176.672" /><path
         id="path24"
         style="fill:#176fc1;fill-opacity:1;fill-rule:nonzero;stroke:none"
         d="m 1337.71,129.043 c 0,-5.605 -4.28,-10.41 -10.15,-10.41 -5.61,0 -10.15,4.531 -10.15,10.41 v 14.941 c -9.33,-14.941 -23.47,-26.953 -47.22,-26.953 -33.36,0 -52.86,22.422 -52.86,55.246 v 76.59 c 0,5.871 4.28,10.41 10.15,10.41 5.61,0 10.41,-4.539 10.41,-10.41 v -71.523 c 0,-25.625 13.88,-41.629 38.16,-41.629 23.49,0 41.36,17.344 41.36,43.23 v 69.922 c 0,5.871 4.28,10.41 10.15,10.41 5.6,0 10.15,-4.539 10.15,-10.41 V 129.043" /><path
         id="path26"
         style="fill:#176fc1;fill-opacity:1;fill-rule:nonzero;stroke:none"
         d="m 1412.42,156.523 v 83.274 h -11.2 c -4.8,0 -9.08,4.266 -9.08,9.07 0,5.071 4.28,9.074 9.08,9.074 h 11.2 V 290.5 c 0,5.605 4.27,10.41 10.15,10.41 5.6,0 10.41,-4.805 10.41,-10.41 v -32.559 h 35.76 c 5.06,0 9.34,-4.269 9.34,-9.074 0,-5.078 -4.28,-9.07 -9.34,-9.07 h -35.76 v -80.598 c 0,-16.816 9.33,-22.949 23.21,-22.949 7.2,0 10.95,1.867 12.55,1.867 4.8,0 8.8,-4.004 8.8,-8.808 0,-3.743 -2.4,-6.672 -5.87,-8.008 -5.88,-2.403 -12.28,-3.742 -20.28,-3.742 -22.16,0 -38.97,10.949 -38.97,38.964" /><path
         id="path28"
         style="fill:#176fc1;fill-opacity:1;fill-rule:nonzero;stroke:none"
         d="m 1536.24,248.867 c 0,5.606 4.54,10.41 10.15,10.41 5.87,0 10.41,-4.539 10.41,-10.41 V 129.043 c 0,-5.879 -4.27,-10.41 -10.15,-10.41 -5.87,0 -10.41,4.531 -10.41,10.41 z m -1.86,52.305 c 0,6.676 5.34,10.941 12.01,10.941 6.94,0 12.27,-4.265 12.27,-10.941 v -3.469 c 0,-6.402 -5.33,-10.945 -12.27,-10.945 -6.67,0 -12.01,4.543 -12.01,10.945 v 3.469" /><path
         id="path30"
         style="fill:#176fc1;fill-opacity:1;fill-rule:nonzero;stroke:none"
         d="m 1740.13,188.281 v 0.539 c 0,29.618 -22.15,53.914 -51.23,53.914 -29.9,0 -50.45,-24.296 -50.45,-53.379 v -0.535 c 0,-29.621 21.89,-53.644 50.97,-53.644 29.9,0 50.71,24.023 50.71,53.105 z m -122.76,0 v 0.539 c 0,38.965 30.42,72.059 72.05,72.059 41.37,0 71.8,-32.559 71.8,-71.524 v -0.535 c 0,-38.957 -30.69,-72.062 -72.32,-72.062 -41.37,0 -71.53,32.558 -71.53,71.523" /><path
         id="path32"
         style="fill:#176fc1;fill-opacity:1;fill-rule:nonzero;stroke:none"
         d="m 1819.66,248.867 c 0,5.606 4.53,10.41 10.13,10.41 5.88,0 10.42,-4.539 10.42,-10.41 v -14.941 c 9.07,14.941 23.48,26.953 47.23,26.953 33.36,0 52.84,-22.422 52.84,-55.242 v -76.594 c 0,-5.879 -4.53,-10.41 -10.13,-10.41 -5.88,0 -10.41,4.531 -10.41,10.41 v 71.523 c 0,25.618 -13.89,41.633 -38.17,41.633 -23.75,0 -41.36,-17.355 -41.36,-43.234 v -69.922 c 0,-5.879 -4.28,-10.41 -10.14,-10.41 -5.88,0 -10.41,4.531 -10.41,10.41 v 119.824" /><path
         id="path34"
         style="fill:#176fc1;fill-opacity:1;fill-rule:nonzero;stroke:none"
         d="m 1997.92,134.648 c -1.87,1.329 -3.73,4.004 -3.73,7.461 0,4.805 4,8.809 9.07,8.809 1.87,0 3.74,-0.527 5.07,-1.602 14.14,-9.597 28.83,-14.668 43.77,-14.668 16.54,0 28.55,8.536 28.55,21.875 v 0.54 c 0,13.875 -16.27,19.207 -34.42,24.285 -21.61,6.132 -45.63,13.613 -45.63,38.965 v 0.527 c 0,23.75 19.74,39.504 46.97,39.504 14.67,0 30.68,-4.543 44.02,-11.75 2.68,-1.602 5.08,-4.531 5.08,-8.535 0,-4.805 -4,-8.809 -9.07,-8.809 -1.87,0 -3.47,0.535 -4.54,1.074 -11.74,6.668 -24.28,10.676 -36.03,10.676 -16.28,0 -26.69,-8.547 -26.69,-20.02 v -0.539 c 0,-13.066 17.08,-18.144 35.49,-23.75 21.36,-6.406 44.31,-14.668 44.31,-39.492 v -0.539 c 0,-26.148 -21.61,-41.363 -49.1,-41.363 -18.16,0 -38.17,6.668 -53.12,17.351" /><path
         id="path36"
         style="fill:#214395;fill-opacity:1;fill-rule:nonzero;stroke:none"
         d="m 731.371,561.887 c 0,13.937 11.027,24.965 24.969,24.965 h 5.187 c 11.996,0 19.133,-5.836 25.938,-14.59 L 883.77,445.801 v 117.054 c 0,13.622 11.027,24.645 24.644,24.645 13.617,0 24.645,-11.023 24.645,-24.645 V 382.25 c 0,-13.945 -11.028,-24.969 -24.969,-24.969 h -1.621 c -12,0 -19.129,5.84 -25.942,14.594 L 780.66,502.871 V 381.273 c 0,-13.617 -11.027,-24.636 -24.644,-24.636 -13.618,0 -24.645,11.019 -24.645,24.636 v 180.614" /><path
         id="path38"
         style="fill:#214395;fill-opacity:1;fill-rule:nonzero;stroke:none"
         d="m 1077.01,419.863 v 8.754 c -8.43,3.895 -19.46,6.485 -31.45,6.485 -21.08,0 -34.05,-8.43 -34.05,-23.993 v -0.648 c 0,-13.297 11.02,-21.074 26.91,-21.074 23.03,0 38.59,12.64 38.59,30.476 z M 963.848,408.516 v 0.644 c 0,37.942 28.855,55.449 70.032,55.449 17.51,0 30.16,-2.918 42.48,-7.132 v 2.918 c 0,20.425 -12.64,31.773 -37.29,31.773 -13.62,0 -24.64,-1.941 -34.05,-4.863 -2.91,-0.973 -4.86,-1.293 -7.129,-1.293 -11.348,0 -20.426,8.754 -20.426,20.101 0,8.754 5.515,16.211 13.293,19.129 15.562,5.836 32.422,9.078 55.452,9.078 26.91,0 46.36,-7.132 58.68,-19.453 12.98,-12.969 18.81,-32.097 18.81,-55.449 v -79.113 c 0,-13.293 -10.7,-23.668 -23.99,-23.668 -14.27,0 -23.67,10.047 -23.67,20.426 v 0.324 c -12,-13.293 -28.54,-22.051 -52.53,-22.051 -32.752,0 -59.662,18.809 -59.662,53.18" /><path
         id="path40"
         style="fill:#214395;fill-opacity:1;fill-rule:nonzero;stroke:none"
         d="m 1163.25,561.887 c 0,13.937 11.02,24.965 24.96,24.965 h 5.2 c 11.99,0 19.12,-5.836 25.94,-14.59 l 96.29,-126.461 v 117.054 c 0,13.622 11.03,24.645 24.64,24.645 13.63,0 24.65,-11.023 24.65,-24.645 V 382.25 c 0,-13.945 -11.02,-24.969 -24.96,-24.969 h -1.62 c -12.01,0 -19.14,5.84 -25.95,14.594 l -99.87,130.996 V 381.273 c 0,-13.617 -11.02,-24.636 -24.64,-24.636 -13.62,0 -24.64,11.019 -24.64,24.636 v 180.614" /><path
         id="path42"
         style="fill:#214395;fill-opacity:1;fill-rule:nonzero;stroke:none"
         d="m 1464.14,539.512 h -47.99 c -12.64,0 -23.02,10.375 -23.02,23.023 0,12.641 10.38,23.016 23.02,23.016 h 145.91 c 12.66,0 23.03,-10.375 23.03,-23.016 0,-12.648 -10.37,-23.023 -23.03,-23.023 h -47.99 v -157.91 c 0,-13.946 -11.01,-24.965 -24.96,-24.965 -13.94,0 -24.97,11.019 -24.97,24.965 v 157.91" /><path
         id="path44"
         style="fill:#214395;fill-opacity:1;fill-rule:nonzero;stroke:none"
         d="m 1688.19,459.098 c -2.93,22.05 -15.9,36.961 -36.64,36.961 -20.43,0 -33.73,-14.59 -37.61,-36.961 z m -31.77,-104.41 c -52.21,0 -90.8,36.64 -90.8,89.82 v 0.644 c 0,49.614 35.35,90.469 85.93,90.469 58.03,0 83.66,-47.668 83.66,-83.656 0,-14.27 -10.06,-23.672 -23.03,-23.672 h -97.6 c 4.86,-22.375 20.43,-34.043 42.48,-34.043 13.61,0 24.96,4.211 35.02,11.668 3.56,2.598 6.81,3.891 11.99,3.891 11.03,0 19.14,-8.426 19.14,-19.454 0,-6.484 -2.93,-11.347 -6.49,-14.589 -15.25,-12.973 -35.01,-21.078 -60.3,-21.078" /><path
         id="path46"
         style="fill:#214395;fill-opacity:1;fill-rule:nonzero;stroke:none"
         d="m 1756.27,444.508 v 0.644 c 0,49.614 37.94,90.469 91.11,90.469 26.26,0 44.75,-7.133 59.35,-19.461 3.24,-2.59 7.77,-8.426 7.77,-16.859 0,-12.317 -10.05,-22.043 -22.37,-22.043 -6.49,0 -11.35,2.59 -14.27,4.859 -8.75,6.809 -17.83,11.028 -30.8,11.028 -24.65,0 -42.15,-21.727 -42.15,-47.344 v -0.649 c 0,-26.586 17.19,-47.988 44.09,-47.988 12.98,0 23.02,4.539 32.44,11.996 2.58,1.949 7.45,4.543 13.29,4.543 11.67,0 20.75,-9.406 20.75,-21.074 0,-6.484 -2.92,-11.676 -7.13,-15.566 -14.6,-13.297 -33.09,-22.375 -61.62,-22.375 -52.2,0 -90.46,40.21 -90.46,89.82" /><path
         id="path48"
         style="fill:#214395;fill-opacity:1;fill-rule:nonzero;stroke:none"
         d="m 1941.73,572.582 c 0,13.621 11.02,24.645 24.65,24.645 13.61,0 24.64,-11.024 24.64,-24.645 v -64.848 c 11.35,14.59 25.94,27.887 50.9,27.887 37.29,0 59.02,-24.644 59.02,-64.527 v -89.821 c 0,-13.617 -11.03,-24.636 -24.64,-24.636 -13.62,0 -24.65,11.019 -24.65,24.636 v 74.254 c 0,23.352 -11.02,35.348 -29.82,35.348 -18.81,0 -30.81,-11.996 -30.81,-35.348 v -74.254 c 0,-13.617 -11.03,-24.636 -24.64,-24.636 -13.63,0 -24.65,11.019 -24.65,24.636 v 191.309" /></g></g></svg>