<?xml version="1.0" encoding="UTF-8" standalone="no"?>
<!-- Created with Inkscape (http://www.inkscape.org/) -->

<svg
   width="1500mm"
   height="1500mm"
   viewBox="0 0 1500 1500"
   version="1.1"
   id="svg1"
   xml:space="preserve"
   inkscape:version="1.4 (86a8ad7, 2024-10-11)"
   sodipodi:docname="15VG230225.svg"
   inkscape:export-filename="15VG230225.jpg"
   inkscape:export-xdpi="96"
   inkscape:export-ydpi="96"
   xmlns:inkscape="http://www.inkscape.org/namespaces/inkscape"
   xmlns:sodipodi="http://sodipodi.sourceforge.net/DTD/sodipodi-0.dtd"
   xmlns="http://www.w3.org/2000/svg"
   xmlns:svg="http://www.w3.org/2000/svg"><sodipodi:namedview
     id="namedview1"
     pagecolor="#ffffff"
     bordercolor="#000000"
     borderopacity="0.25"
     inkscape:showpageshadow="2"
     inkscape:pageopacity="0.0"
     inkscape:pagecheckerboard="0"
     inkscape:deskcolor="#d1d1d1"
     inkscape:document-units="mm"
     inkscape:zoom="0.062500002"
     inkscape:cx="3415.9999"
     inkscape:cy="2087.9999"
     inkscape:window-width="1366"
     inkscape:window-height="705"
     inkscape:window-x="-8"
     inkscape:window-y="-8"
     inkscape:window-maximized="1"
     inkscape:current-layer="layer1"
     showguides="true"
     showgrid="false"><inkscape:grid
       id="grid3"
       units="mm"
       originx="0"
       originy="0"
       spacingx="0.26458333"
       spacingy="0.26458333"
       empcolor="#0099e5"
       empopacity="0.30196078"
       color="#0099e5"
       opacity="0.14901961"
       empspacing="5"
       enabled="true"
       visible="false" /></sodipodi:namedview><defs
     id="defs1"><inkscape:path-effect
       effect="bspline"
       id="path-effect20"
       is_visible="true"
       lpeversion="1.3"
       weight="33.333333"
       steps="2"
       helper_size="0"
       apply_no_weight="true"
       apply_with_weight="true"
       only_selected="false"
       uniform="false" /><inkscape:path-effect
       effect="bspline"
       id="path-effect19"
       is_visible="true"
       lpeversion="1.3"
       weight="33.333333"
       steps="2"
       helper_size="0"
       apply_no_weight="true"
       apply_with_weight="true"
       only_selected="false"
       uniform="false" /><inkscape:path-effect
       effect="bspline"
       id="path-effect18"
       is_visible="true"
       lpeversion="1.3"
       weight="33.333333"
       steps="2"
       helper_size="0"
       apply_no_weight="true"
       apply_with_weight="true"
       only_selected="false"
       uniform="false" /><inkscape:path-effect
       effect="bspline"
       id="path-effect17"
       is_visible="true"
       lpeversion="1.3"
       weight="33.333333"
       steps="2"
       helper_size="0"
       apply_no_weight="true"
       apply_with_weight="true"
       only_selected="false"
       uniform="false" /><inkscape:path-effect
       effect="bspline"
       id="path-effect16"
       is_visible="true"
       lpeversion="1.3"
       weight="33.333333"
       steps="2"
       helper_size="0"
       apply_no_weight="true"
       apply_with_weight="true"
       only_selected="false"
       uniform="false" /><inkscape:path-effect
       effect="bspline"
       id="path-effect15"
       is_visible="true"
       lpeversion="1.3"
       weight="33.333333"
       steps="2"
       helper_size="0"
       apply_no_weight="true"
       apply_with_weight="true"
       only_selected="false"
       uniform="false" /><inkscape:path-effect
       effect="bspline"
       id="path-effect14"
       is_visible="true"
       lpeversion="1.3"
       weight="33.333333"
       steps="2"
       helper_size="0"
       apply_no_weight="true"
       apply_with_weight="true"
       only_selected="false"
       uniform="false" /><inkscape:path-effect
       effect="bspline"
       id="path-effect13"
       is_visible="true"
       lpeversion="1.3"
       weight="33.333333"
       steps="2"
       helper_size="0"
       apply_no_weight="true"
       apply_with_weight="true"
       only_selected="false"
       uniform="false" /><inkscape:path-effect
       effect="bspline"
       id="path-effect12"
       is_visible="true"
       lpeversion="1.3"
       weight="33.333333"
       steps="2"
       helper_size="0"
       apply_no_weight="true"
       apply_with_weight="true"
       only_selected="false"
       uniform="false" /><inkscape:path-effect
       effect="bspline"
       id="path-effect11"
       is_visible="true"
       lpeversion="1.3"
       weight="33.333333"
       steps="2"
       helper_size="0"
       apply_no_weight="true"
       apply_with_weight="true"
       only_selected="false"
       uniform="false" /><inkscape:path-effect
       effect="bspline"
       id="path-effect10"
       is_visible="true"
       lpeversion="1.3"
       weight="33.333333"
       steps="2"
       helper_size="0"
       apply_no_weight="true"
       apply_with_weight="true"
       only_selected="false"
       uniform="false" /><inkscape:path-effect
       effect="bspline"
       id="path-effect9"
       is_visible="true"
       lpeversion="1.3"
       weight="33.333333"
       steps="2"
       helper_size="0"
       apply_no_weight="true"
       apply_with_weight="true"
       only_selected="false"
       uniform="false" /><inkscape:path-effect
       effect="bspline"
       id="path-effect8"
       is_visible="true"
       lpeversion="1.3"
       weight="33.333333"
       steps="2"
       helper_size="0"
       apply_no_weight="true"
       apply_with_weight="true"
       only_selected="false"
       uniform="false" /><inkscape:path-effect
       effect="bspline"
       id="path-effect7"
       is_visible="true"
       lpeversion="1.3"
       weight="33.333333"
       steps="2"
       helper_size="0"
       apply_no_weight="true"
       apply_with_weight="true"
       only_selected="false"
       uniform="false" /><inkscape:path-effect
       effect="bspline"
       id="path-effect6"
       is_visible="true"
       lpeversion="1.3"
       weight="33.333333"
       steps="2"
       helper_size="0"
       apply_no_weight="true"
       apply_with_weight="true"
       only_selected="false"
       uniform="false" /><inkscape:path-effect
       effect="bspline"
       id="path-effect5"
       is_visible="true"
       lpeversion="1.3"
       weight="33.333333"
       steps="2"
       helper_size="0"
       apply_no_weight="true"
       apply_with_weight="true"
       only_selected="false"
       uniform="false" /><inkscape:path-effect
       effect="bspline"
       id="path-effect4"
       is_visible="true"
       lpeversion="1.3"
       weight="33.333333"
       steps="2"
       helper_size="0"
       apply_no_weight="true"
       apply_with_weight="true"
       only_selected="false"
       uniform="false" /><inkscape:path-effect
       effect="bspline"
       id="path-effect3"
       is_visible="true"
       lpeversion="1.3"
       weight="33.333333"
       steps="2"
       helper_size="0"
       apply_no_weight="true"
       apply_with_weight="true"
       only_selected="false"
       uniform="false" /><inkscape:path-effect
       effect="bspline"
       id="path-effect2"
       is_visible="true"
       lpeversion="1.3"
       weight="33.333333"
       steps="2"
       helper_size="0"
       apply_no_weight="true"
       apply_with_weight="true"
       only_selected="false"
       uniform="false" /><inkscape:path-effect
       effect="bspline"
       id="path-effect1"
       is_visible="true"
       lpeversion="1.3"
       weight="33.333333"
       steps="2"
       helper_size="0"
       apply_no_weight="true"
       apply_with_weight="true"
       only_selected="false"
       uniform="false" /><inkscape:path-effect
       effect="bspline"
       id="path-effect3-2"
       is_visible="true"
       lpeversion="1.3"
       weight="33.333333"
       steps="2"
       helper_size="0"
       apply_no_weight="true"
       apply_with_weight="true"
       only_selected="false"
       uniform="false" /><inkscape:path-effect
       effect="bspline"
       id="path-effect2-4"
       is_visible="true"
       lpeversion="1.3"
       weight="33.333333"
       steps="2"
       helper_size="0"
       apply_no_weight="true"
       apply_with_weight="true"
       only_selected="false"
       uniform="false" /><inkscape:path-effect
       effect="bspline"
       id="path-effect1-1"
       is_visible="true"
       lpeversion="1.3"
       weight="33.333333"
       steps="2"
       helper_size="0"
       apply_no_weight="true"
       apply_with_weight="true"
       only_selected="false"
       uniform="false" /><inkscape:path-effect
       effect="bspline"
       id="path-effect2-5"
       is_visible="true"
       lpeversion="1.3"
       weight="33.333333"
       steps="2"
       helper_size="0"
       apply_no_weight="true"
       apply_with_weight="true"
       only_selected="false"
       uniform="false" /><inkscape:path-effect
       effect="bspline"
       id="path-effect3-27"
       is_visible="true"
       lpeversion="1.3"
       weight="33.333333"
       steps="2"
       helper_size="0"
       apply_no_weight="true"
       apply_with_weight="true"
       only_selected="false"
       uniform="false" /><inkscape:path-effect
       effect="bspline"
       id="path-effect9-5"
       is_visible="true"
       lpeversion="1.3"
       weight="33.333333"
       steps="2"
       helper_size="0"
       apply_no_weight="true"
       apply_with_weight="true"
       only_selected="false"
       uniform="false" /><inkscape:path-effect
       effect="bspline"
       id="path-effect8-7"
       is_visible="true"
       lpeversion="1.3"
       weight="33.333333"
       steps="2"
       helper_size="0"
       apply_no_weight="true"
       apply_with_weight="true"
       only_selected="false"
       uniform="false" /></defs><g
     inkscape:label="Layer 1"
     inkscape:groupmode="layer"
     id="layer1"><g
       id="g14"
       transform="matrix(0.76507498,0,0,0.76507498,-364.79819,-2094.011)"><path
         id="path8"
         d="m 923.418,2338.469 c -43.594,11.461 -82.164,33.398 -104.211,68.172 -22.047,34.777 -27.57,82.39 -22.941,129.812 4.625,47.422 19.39,94.652 26.773,130.594 7.379,35.945 7.371,60.601 -0.668,89.301 -8.043,28.699 -24.117,61.437 -30.949,97.289 -6.832,35.851 -4.418,74.808 -3.012,98.707 1.406,23.902 1.805,32.738 -9.848,56.64 -11.652,23.899 -35.355,62.86 -55.843,97.895 -20.492,35.031 -37.77,66.133 -29.531,64.004 8.234,-2.125 41.988,-37.485 68.304,-63.184 26.317,-25.703 45.196,-41.75 57.852,-45.844 12.656,-4.089 19.09,3.774 33.554,26.2 14.461,22.425 36.965,59.418 59.465,85.613 22.5,26.191 45,41.578 75.235,54.59 96.449,41.515 171.179,16.914 210.468,0 30.235,-13.012 52.735,-28.399 75.235,-54.59 22.5,-26.195 45.004,-63.188 59.465,-85.613 14.464,-22.426 20.89,-30.289 33.546,-26.2 12.657,4.094 31.543,20.141 57.86,45.844 26.316,25.699 60.07,61.059 68.305,63.184 8.238,2.129 -9.039,-28.973 -29.532,-64.004 -20.488,-35.035 -44.199,-73.996 -55.851,-97.895 -11.653,-23.902 -11.246,-32.738 -9.84,-56.64 1.406,-23.899 3.82,-62.856 -3.012,-98.707 -6.832,-35.852 -22.906,-68.59 -30.949,-97.289 -8.039,-28.7 -8.055,-53.356 -0.672,-89.301 7.379,-35.942 22.152,-83.172 26.781,-130.594 4.625,-47.422 -0.898,-95.035 -22.945,-129.812 -22.047,-34.774 -60.617,-56.711 -104.211,-68.172 -68.93,-18.117 -269.875,-18.125 -338.828,0 z m 260.977,204.297 c 27.824,-3.602 51.128,-6.547 67,3.437 15.871,9.988 24.308,32.906 30.941,55.008 6.629,22.098 11.449,43.379 13.859,70.062 2.414,26.684 2.41,58.77 6.024,88.235 3.617,29.469 10.851,56.312 8.242,84.308 -2.613,27.993 -15.066,57.129 -25.914,76.938 -10.852,19.808 -20.094,30.281 -31.344,24.387 -11.25,-5.895 -24.508,-28.157 -35.558,-44.364 -11.051,-16.207 -20.18,-35.125 -38.852,-30.121 -92.531,24.793 -102.648,18.559 -171.922,0 -18.676,-5.004 -27.801,13.914 -38.851,30.121 -11.051,16.207 -24.309,38.469 -35.559,44.364 -11.25,5.894 -20.496,-4.579 -31.344,-24.387 -10.847,-19.809 -23.301,-48.945 -25.914,-76.938 -2.613,-27.996 4.625,-54.839 8.242,-84.308 3.614,-29.465 3.61,-61.551 6.02,-88.235 2.414,-26.683 7.234,-47.964 13.863,-70.062 6.633,-22.102 15.07,-45.02 30.942,-55.008 15.871,-9.984 39.168,-7.039 66.992,-3.437 54.73,7.086 128.203,7.109 183.133,0 z m -31.368,405.734 c 15.692,0.578 24.36,1.852 30.825,8.391 6.46,6.539 10.722,18.343 11.363,30.73 0.637,12.387 -2.348,25.348 -7.535,36.457 -5.184,11.113 -12.571,20.379 -19.602,20.32 -7.031,-0.062 -13.707,-9.433 -20.738,-21.355 -7.031,-11.922 -14.418,-26.391 -23.719,-34.031 -12.156,-9.985 -49.422,-9.989 -61.578,0 -9.301,7.64 -16.688,22.109 -23.719,34.031 -7.031,11.922 -13.707,21.297 -20.738,21.355 -7.031,0.063 -14.418,-9.207 -19.606,-20.32 -5.183,-11.109 -8.168,-24.07 -7.531,-36.457 0.641,-12.387 4.903,-24.191 11.363,-30.73 6.465,-6.539 15.133,-7.813 30.825,-8.391 17.285,-0.637 100.961,-0.719 120.39,0 z"
         style="fill:#000000;fill-opacity:1;fill-rule:nonzero;stroke:none"
         transform="scale(1.3333333)" /><path
         id="path9"
         d="m 1044.238,2647 c -4.617,-0.301 -13.859,-0.902 -35.957,-1.406 -22.101,-0.5 -57.054,-0.903 -74.332,4.218 -17.277,5.126 -16.875,15.774 1.61,22.704 18.48,6.929 55.043,10.144 76.64,11.55 21.594,1.407 28.223,1.004 31.84,-5.425 3.617,-6.426 4.219,-18.883 4.52,-25.11 0.3,-6.23 0.3,-6.23 -4.321,-6.531 z"
         style="fill:#000000;fill-opacity:1;fill-rule:nonzero;stroke:none"
         transform="scale(1.3333333)" /><path
         id="path10"
         d="m 1033.621,2726.477 c -4.84,-10.93 -16.555,-16.395 -27.484,-15.301 -10.93,1.09 -21.082,8.742 -24.907,19.441 -3.828,10.695 -1.328,24.438 8.586,31.543 9.918,7.106 27.25,7.574 36.934,-0.39 9.68,-7.965 11.711,-24.36 6.871,-35.293 z"
         style="fill:#000000;fill-opacity:1;fill-rule:nonzero;stroke:none"
         transform="scale(1.3333333)" /><path
         id="path11"
         d="m 1141.422,2647 c 4.621,-0.301 13.863,-0.902 35.961,-1.406 22.097,-0.5 57.055,-0.903 74.332,4.218 17.277,5.126 16.875,15.774 -1.61,22.704 -18.484,6.929 -55.043,10.144 -76.64,11.55 -21.598,1.407 -28.227,1.004 -31.844,-5.425 -3.613,-6.426 -4.219,-18.883 -4.519,-25.11 -0.301,-6.23 -0.301,-6.23 4.32,-6.531 z"
         style="fill:#000000;fill-opacity:1;fill-rule:nonzero;stroke:none"
         transform="scale(1.3333333)" /><path
         id="path12"
         d="m 1152.043,2726.477 c 4.84,-10.93 16.551,-16.395 27.48,-15.301 10.934,1.09 21.082,8.742 24.911,19.441 3.824,10.695 1.324,24.438 -8.59,31.543 -9.918,7.106 -27.25,7.574 -36.93,-0.39 -9.684,-7.965 -11.715,-24.36 -6.871,-35.293 z"
         style="fill:#000000;fill-opacity:1;fill-rule:nonzero;stroke:none"
         transform="scale(1.3333333)" /></g></g></svg>
