<svg xmlns="http://www.w3.org/2000/svg" viewBox="0 0 256 256"><defs><style>.cls-1,.cls-2,.cls-3{fill:none;}.cls-1,.cls-2{stroke:#000;stroke-width:3px;}.cls-1,.cls-3{stroke-linecap:round;stroke-linejoin:round;}.cls-2{stroke-miterlimit:10;}.cls-3{stroke:#fff;stroke-width:2px;}</style></defs><g id="_1" data-name="1"><path d="M4,210.1l80.71-29.28,3.09-20.07s-.11,32.47,19.37,48.79c12,8.8,11,7.28,20.83,30.16,0,0,21.68-22.73,27.61-38.76s8.51-38.76,8.51-38.76l1.69,17.33L252,212.6V252H4Z"/><path d="M183.48,100.6l-4.68,2.55-4-12s-14.24-9.23-9.76-29.8c0,0-29.67,19.32-77.93,7.45,0,0-2,13.66-6.46,20l-3.63,15L71.66,102S55.55,46.65,96.45,34.45c38.9-11.6,60.22-12.31,75.43,11.08,0,0,9.45.79,13.91,8.63C192.32,65.64,184,98.22,183.48,100.6Z"/><circle cx="99.88" cy="110.27" r="3.43"/><circle cx="149.59" cy="111" r="3.1"/><path d="M168.05,40.31s-7-27.75-63-10.61c0,0,50-10.16,61.68,11.11Z"/><path d="M93,35.64S64.74,39.53,66.12,79.29c0,0-1-32.77,26.85-42.2Z"/><path d="M184.63,52.42c4.92,7.09,5.35,20,3.65,31.71l-2.49-15.86Z"/><path d="M165,61.35s-24.38,15.16-57.36,14.24c0,0,32.44-4.61,45-12.66Z"/><path d="M122.56,189.36s8.77,1.88,20.63-2.87c15.17-6.06,18.86-20.76,17.67-4.61,0,0,4.12-12.66,2.66-18.36C163.52,163.52,152.69,189.46,122.56,189.36Z"/><path d="M89.21,163.52s5.39,11.63,11.59,16c0,0-5.47-4.62-7.18-7-4.56-6.31-3,5-3,5Z"/><path class="cls-1" d="M119.13,111.73c0,9.83-3.95,15.29-17.8,15.29s-17.8-5.46-17.8-15.29S90.17,98.42,100,98.42,119.13,101.89,119.13,111.73Z"/><path class="cls-1" d="M132.85,111.73c0,9.83,4,15.29,17.8,15.29s17.8-5.46,17.8-15.29S161.81,98.42,152,98.42,132.85,101.89,132.85,111.73Z"/><path class="cls-1" d="M119.13,111.73s5.56-3.28,13.72,0"/><path class="cls-1" d="M180.58,95.11c-2.37,18.26-10.46,49-13.45,58.81C160,177.4,146,188.47,122.56,188.47"/><path class="cls-1" d="M75.42,94.32c0,.79,4.94,50.64,11.27,64.09,2.69,5.71,6.92,15,18.33,23.47"/><path class="cls-1" d="M88.54,93.66s15.17-5.14,27.43,4.76"/><path class="cls-1" d="M135.35,98.42s15-9.91,29.08-3"/><path class="cls-1" d="M122.3,118.58s-3.17,13.65-3.17,18.29C119.13,142,126,141,126,141"/><path class="cls-1" d="M114.25,157a67.63,67.63,0,0,0,22.55-1.19"/><path class="cls-1" d="M123,163.44a22.76,22.76,0,0,0,5.11,0"/><path class="cls-1" d="M179.29,103.36s1-4.1,7.29-2.32-6.74,40.22-13.23,29.68"/><path class="cls-1" d="M76.42,103.89S75,101.63,71,102c-7.86.79,3.26,40.55,9.81,33.17"/><path class="cls-1" d="M88.54,162.18s1.12,16.4,5.08,26.29,12.06,22,18.79,24.73S128,239.7,128,239.7a234.17,234.17,0,0,0,18.49-22.48c9.56-13.19,20.21-35.18,16.21-52"/><line class="cls-2" x1="180.58" y1="100.6" x2="168.05" y2="107.9"/><line class="cls-2" x1="82.96" y1="107.9" x2="74.56" y2="101.98"/><path class="cls-3" d="M154.84,211.22c4.64,2.31,7,9,6.23,14.7,0,0,9-16.08,5.27-42.22"/><path class="cls-3" d="M100.14,206.52s-4.65,15.18-2.59,19.4c0,0-13.38-18.86-12-39.43"/></g></svg>