<?xml version="1.0" encoding="UTF-8" standalone="no"?>
<!DOCTYPE svg PUBLIC "-//W3C//DTD SVG 20010904//EN" "http://www.w3.org/TR/2001/REC-SVG-20010904/DTD/svg10.dtd">
<svg xmlns="http://www.w3.org/2000/svg" width="6in" height="9in" viewBox="0 0 800 1200" role="img" aria-labelledby="title desc">
  <title id="title">Woman Smiling</title>
  <desc id="desc">Cartoon of a woman smiling with her eyes closed, drawn by Alvaro Montoro</desc>
  <defs>
    <linearGradient id="neck-gradient"  x1="0" x2="0" y1="0" y2="1">
      <stop stop-color="#bbb" offset="0%" />
      <stop stop-color="#fff" offset="20%" />
    </linearGradient>
    <clipPath id="body-clip">
      <path d="M 296,527 C 329,593 327,689 296,714 265,739 78,786 56,992 37,1159 364,1162 413,1162 462,1162 776,1156 744,970 712,784 532,727 506,714 480,701 459,563 495,525" />
    </clipPath>
  </defs>
  <g fill="#222222">
    <path d="M 204,115 C -18,403 18,901 20,977 22,1053 62,1181 388,1183 714,1185 780,1081 780,989 780,897 836,209 490,61" />
    <path fill="url(#neck-gradient)" d="M 296,527 C 329,593 327,689 296,714 265,739 78,786 56,992 37,1159 364,1162 413,1162 462,1162 776,1156 744,970 712,784 532,727 506,714 470,701 459,563 495,525" />
    <path fill="#fff" d="M 261,112 C 40,406 270,609 408,602 546,595 774,383 504,67" />
    <path d="M 339,148 C 321,206 253,252 205,247 269,265 343,202 357,147 425,237 571,298 689,249 603,28 427,15 375,16 323,16 167,34 121,241 227,258 306,199 339,147" />
    <path d="M 412,997 C 412,997 420,951 420,951 420,951 417,1036 417,1036" />
    <path fill="#369" clip-path="url(#body-clip)" d="M 29,933 C 152,1019 736,1029 656,750 633,496 897,1158 897,1158 897,1158 29,1179 29,1179" />
    <ellipse cx="302" cy="408" rx="55" ry="20" fill="#ffe3e1" />
    <ellipse cx="512" cy="408" rx="55" ry="20" fill="#ffe3e1" />
    <path d="M 262,321 C 262,321 270,321 270,321 287,380 352,354 354,321 354,321 363,321 363,321 363,325 364,378 313,379 262,379 259,329 262,321" />
    <path d="M 452,321 C 452,321 460,321 460,321 464,358 530,375 545,321 545,321 554,321 554,321 554,321 556,378 504,379 452,380 451,328 452,321" />
    <path d="M 338,503 C 366,510 424,510 463,492 464,492 467,500 467,500 452,514 380,536 336,511" />
  </g>
</svg>
